<?xml version="1.0" encoding="utf-8"?>
<!-- Generator: Adobe Illustrator 27.0.0, SVG Export Plug-In . SVG Version: 6.00 Build 0)  -->
<svg version="1.1" xmlns="http://www.w3.org/2000/svg" xmlns:xlink="http://www.w3.org/1999/xlink" x="0px" y="0px"
	 viewBox="0 0 715.2 848.9" style="enable-background:new 0 0 715.2 848.9;" xml:space="preserve">
<style type="text/css">
	.st0{display:none;}
	.st1{display:inline;}
	.st2{fill:none;stroke:#F3EE96;stroke-width:30;stroke-linecap:round;stroke-linejoin:round;stroke-miterlimit:10;}
	.st3{fill:#F3EE96;}
	.st4{fill:#1E1E1C;}
	.st5{fill:#9BCECF;}
	.st6{opacity:0.3;}
	.st7{fill:#ADDADD;}
	.st8{fill:#FECF66;}
	
		.st9{fill:none;stroke:#ADDADD;stroke-width:2;stroke-linecap:round;stroke-linejoin:round;stroke-miterlimit:10;stroke-dasharray:9.9611,8.8543;}
	.st10{opacity:0.7;}
	
		.st11{fill:none;stroke:#C9E7EC;stroke-width:2;stroke-linecap:round;stroke-linejoin:round;stroke-miterlimit:10;stroke-dasharray:6,6;}
	.st12{fill:#C9E7EC;}
	.st13{clip-path:url(#SVGID_00000024714980419831325040000009075522215021807247_);}
	.st14{fill:#CF907A;}
	.st15{opacity:0.2;fill:#CF907A;}
	.st16{opacity:0.15;fill:#CF907A;}
	.st17{fill:none;stroke:#B86956;stroke-width:1.6386;stroke-linecap:round;stroke-linejoin:round;stroke-miterlimit:10;}
	.st18{opacity:0.4;}
	.st19{opacity:0.4;fill:#F192B0;}
	.st20{fill:#43474D;}
	.st21{fill:#192F34;}
	.st22{fill:none;stroke:#0E1D1F;stroke-width:1.2139;stroke-linecap:round;stroke-linejoin:round;stroke-miterlimit:10;}
	.st23{fill:#771232;}
	.st24{fill:#C47F6C;}
	.st25{fill:#D71E50;}
	.st26{opacity:0.2;fill:#EA5D69;}
	.st27{opacity:0.2;}
	.st28{fill:#EA5D69;}
	.st29{fill:none;stroke:#B86956;stroke-width:1.4585;stroke-linecap:round;stroke-linejoin:round;stroke-miterlimit:10;}
	.st30{fill:#CF907A;stroke:#B86956;stroke-width:1.4585;stroke-linecap:round;stroke-linejoin:round;stroke-miterlimit:10;}
	.st31{font-family:'SFProDisplay-Black';}
	.st32{font-size:236.2145px;}
</style>
<g id="Capa_1" class="st0">
	<g class="st1">
		<path class="st2" d="M221.3,271.5l90.4,111.7l191.8-267.8h-325v241.3c0,46.2,37.4,83.6,83.6,83.6h241.2c0.1,0,0.2-0.1,0.2-0.2
			V188.7"/>
		<g>
			<path class="st3" d="M51.8,681.1h48.5c8.2,0,14.9,6.7,14.9,14.9l0,0c0,8.2-6.7,14.9-14.9,14.9H14.9C6.7,711,0,704.3,0,696.1
				V545.5c0-8.2,6.7-14.9,14.9-14.9h7c8.2,0,14.9,6.7,14.9,14.9v120.7C36.9,674.4,43.6,681.1,51.8,681.1z"/>
			<path class="st3" d="M133.8,542.2c0-5.4,1.8-9.8,5.3-13.3c3.6-3.5,8.4-5.2,14.6-5.2c6.1,0,10.9,1.7,14.5,5.2
				c3.6,3.5,5.4,7.9,5.4,13.3c0,5.5-1.8,9.9-5.5,13.4c-3.6,3.5-8.5,5.2-14.4,5.2c-6,0-10.8-1.7-14.4-5.2
				C135.6,552.1,133.8,547.6,133.8,542.2z M153.7,711L153.7,711c-9.8,0-17.8-8-17.8-17.8v-98.4c0-9.8,8-17.8,17.8-17.8h0
				c9.8,0,17.8,8,17.8,17.8v98.4C171.5,703,163.5,711,153.7,711z"/>
			<path class="st3" d="M272.8,673.9c0-4.4-2.2-7.8-6.5-10.3c-4.3-2.5-11.2-4.8-20.7-6.8c-31.6-6.7-47.5-20.2-47.5-40.7
				c0-11.9,4.9-21.8,14.7-29.8c9.8-8,22.6-12,38.4-12c16.9,0,30.4,4,40.5,12c3.1,2.5,5.7,5.1,7.9,8c7.1,9.6,0.3,23.2-11.7,23.2h-5.7
				c-5.5,0-10.2-3.3-12.6-8.3c-0.8-1.6-1.8-3.1-3.1-4.4c-3.3-3.3-8.4-5-15.4-5c-6,0-10.6,1.4-13.9,4.1c-3.3,2.7-4.9,6.2-4.9,10.4
				c0,4,1.9,7.2,5.6,9.6c3.7,2.4,10,4.5,18.9,6.3c8.9,1.8,16.3,3.8,22.4,6c18.8,6.9,28.2,19,28.2,36.1c0,12.2-5.2,22.1-15.6,29.7
				c-10.4,7.6-23.9,11.3-40.3,11.3c-11.1,0-21-2-29.7-6c-8.6-4-15.4-9.5-20.4-16.5c0-0.1-0.1-0.1-0.1-0.2c-6.6-9.4,0.4-22.4,12-22.4
				h3.7c5.6,0,10.4,3.4,12.8,8.4c1.2,2.4,2.8,4.5,5,6.2c4.3,3.4,10.2,5.1,17.5,5.1c6.8,0,11.9-1.3,15.4-3.9
				C271.1,681.6,272.8,678.1,272.8,673.9z"/>
			<path class="st3" d="M372.8,553.6v13.5c0,5.4,4.3,9.7,9.7,9.7h3.3c5.4,0,9.7,4.3,9.7,9.7v6.8c0,5.4-4.3,9.7-9.7,9.7h-3.3
				c-5.4,0-9.7,4.3-9.7,9.7v57.2c0,5,0.9,8.5,2.8,10.7c1.9,2.1,5.5,3.2,10.8,3.2c0.2,0,0.4,0,0.6,0c5.4,0,9.8,4.3,9.8,9.7v9
				c0,4.6-3.2,8.6-7.7,9.5c-4.5,0.9-9.1,1.3-13.8,1.3c-24.9,0-37.6-12.7-38.1-38v-62.5c0-5.4-4.3-9.7-9.7-9.7l0,0
				c-5.4,0-9.7-4.3-9.7-9.7v-6.8c0-5.4,4.3-9.7,9.7-9.7l0,0c5.4,0,9.7-4.3,9.7-9.7v-13.5c0-5.4,4.3-9.7,9.7-9.7h16.1
				C368.5,543.9,372.8,548.3,372.8,553.6z"/>
			<path class="st4" d="M415.1,542.2c0-5.4,1.8-9.8,5.3-13.3c3.6-3.5,8.4-5.2,14.6-5.2c6.1,0,10.9,1.7,14.5,5.2
				c3.6,3.5,5.4,7.9,5.4,13.3c0,5.5-1.8,9.9-5.5,13.4c-3.6,3.5-8.5,5.2-14.4,5.2c-6,0-10.8-1.7-14.4-5.2
				C416.9,552.1,415.1,547.6,415.1,542.2z M435,711L435,711c-9.8,0-17.8-8-17.8-17.8v-98.4c0-9.8,8-17.8,17.8-17.8h0
				c9.8,0,17.8,8,17.8,17.8v98.4C452.9,703,444.9,711,435,711z"/>
			<path class="st4" d="M491.8,701.1v-88c0-5.5-4.4-9.9-9.9-9.9h0c-5.5,0-9.9-4.4-9.9-9.9v-6.5c0-5.5,4.4-9.9,9.9-9.9h0
				c5.5,0,9.9-4.4,9.9-9.9v-1.5c0-15,4.3-26.7,12.8-35c8.6-8.3,20.6-12.5,36-12.5c2.8,0,6,0.3,9.5,0.8c4.9,0.7,8.5,5,8.4,9.9
				l-0.1,8.6c-0.1,5.5-4.6,9.8-10,9.8c-0.3,0-0.6,0-0.9,0c-13.4,0-20,6.3-20,19v0.9c0,5.5,4.4,9.9,9.9,9.9h6.6
				c5.5,0,9.9,4.4,9.9,9.9v6.5c0,5.5-4.4,9.9-9.9,9.9h-6.6c-5.5,0-9.9,4.4-9.9,9.9v88c0,5.5-4.4,9.9-9.9,9.9h-15.9
				C496.3,711,491.8,706.6,491.8,701.1z"/>
			<path class="st4" d="M627.1,643.1l18.4-62.4c0.7-2.2,2.7-3.8,5.1-3.8h26.7c3.6,0,6.2,3.6,5,7l-51,147.7c0,0.1-0.1,0.2-0.1,0.3
				l-2.9,6.9c-8,17.5-21.1,26.3-39.3,26.3c-3.8,0-7.7-0.4-11.6-1.3c-2.4-0.5-4.1-2.7-4.1-5.2v-17.6c0-3,2.4-5.4,5.4-5.3l0,0
				c6.7,0,11.7-1,15.1-3.1c3.3-2.1,5.9-5.5,7.8-10.3l3.5-9.2c0.4-1.2,0.5-2.4,0.1-3.6l-43.5-125.6c-1.2-3.4,1.4-7,5-7h26.9
				c2.3,0,4.4,1.5,5.1,3.8l18.5,62.5C618.5,648.2,625.6,648.2,627.1,643.1z"/>
		</g>
	</g>
</g>
<g id="Capa_2">
	<g>
		<g>
			<g>
				<g>
					<g>
						<polygon class="st5" points="640.4,253.4 619.8,246.4 629.5,237.3 						"/>
					</g>
					<g class="st6">
						<polygon class="st5" points="640.4,253.4 619.8,246.4 629.5,237.3 						"/>
					</g>
					<polygon class="st7" points="668.9,196.1 557.6,182.5 644.5,222.6 					"/>
					<polygon class="st7" points="604.2,268.6 557.8,182.4 630,239.6 					"/>
					<polygon class="st8" points="644.5,222.6 640.4,253.4 630,239.6 557.8,182.4 					"/>
					<polygon class="st5" points="644.5,222.6 640.4,253.4 630,239.6 557.8,182.4 					"/>
				</g>
				<path class="st9" d="M646.3,260c20.8,37,27.6,81.6,18.7,123c-3,14.2-8,28.4-17.6,39.3c-9.5,10.9-24.3,18.1-38.6,15.6
					c-6.9-1.2-13.9-5.3-15.5-12.1c-1.9-8.4,6.5-16.8,15.1-16.6c8.6,0.2,16.1,6.9,19.5,14.9c3.3,8,3.3,16.9,2.4,25.5
					c-3.9,39.7-23.6,77.6-53.9,103.7c-30.2,26-70.7,39.9-110.5,37.8"/>
				<path class="st9" d="M94.1,314.3c-15.9,15.1-27.5,34.8-32.9,56c-5.6,21.9-4.4,46.3,7.2,65.7c11.6,19.4,34.9,32.4,57.1,28.4
					c8-1.5,15.9-5.3,20.8-11.8c4.9-6.6,6.1-16.1,1.6-23c-6.6-10.1-22-10.1-32.8-4.7c-21.8,10.9-32.6,39.7-23.3,62.2
					c10.2,24.7,38.6,36.8,65.2,39.5c61,6.3,124.2-26.9,153.7-80.6"/>
				<g>
					<g>
						<path class="st5" d="M189.2,343c3.1,5.6,3.1,13.2-0.5,18.4c-9.5,13.8-33.7,5-31-12.8C160.2,331.9,181.3,329,189.2,343z"/>
						<path class="st5" d="M221.4,372.3c2.2,3.9,2.2,9.3-0.4,13c-6.7,9.7-23.8,3.5-21.9-9C200.9,364.4,215.8,362.3,221.4,372.3z"/>
						<path class="st5" d="M246.6,176.2c-10.2-8-24.6-9.9-36.8-5.6c-3.9-14.6-12.3-28.1-24.2-37.4c-22.6-17.6-56.3-19.2-80.6-3.9
							c-9.3,5.9-17,14.1-22.6,23.6c-15.3-6.9-34.2-6.1-48.5,3C16,167.2,6.6,190.5,11.6,211c1.6,6.5,4.2,12.1,7.5,16.9
							c-0.6,0.3-1.2,0.6-1.7,1c-13.6,8.6-20.8,26.3-16.9,41.9c5.4,22,25.9,31.3,44.3,27.9c-0.2,4.4,0.2,8.8,1.3,13.1
							c11.9,48.7,80.4,50.2,96.8,4c29.6,23.1,79.9,13.9,94.1-28.1c5-14.6,3.4-31-3.3-44.8c11.2-3.2,21.2-11.4,25.6-24.5
							C264.3,203.6,258.9,185.8,246.6,176.2z"/>
					</g>
					<g class="st10">
						<g>
							<path class="st11" d="M43.6,214.8c4.9,7.9,15.1,11.5,24.2,9.8s16.9-8.2,21.5-16.2c3.1-5.5,4.9-12.3,2.7-18.2
								c-2.2-5.9-9.5-10.1-15.2-7.3c-5.4,2.6-6.8,10.2-4.2,15.6c2.6,5.4,8.1,8.8,13.7,10.9c15.9,5.9,34.8,2.4,47.6-8.6
								c12.8-11.1,18.9-29.3,15.4-45.8"/>
							<path class="st11" d="M206.1,195.6c4.9-6.4,15.8-6.5,21.3-0.7c5.6,5.9,5.4,16,0.2,22.2c-5.2,6.2-14.4,8.3-22.1,5.8
								c-2.9-0.9-6.1-3.3-5.4-6.3c0.7-3.2,5-3.9,8.1-2.8c7.2,2.6,10.7,11.3,9.6,18.8c-1.1,7.5-5.9,14-11.2,19.5"/>
							<path class="st11" d="M71.8,284c-5.3,8.4-4.1,20.1,2.4,27.6c6.4,7.5,17.4,10.5,26.9,7.9c9.5-2.6,17.3-10.5,20.3-19.9
								c1.8-5.4,1.9-11.8-1.5-16.5c-3.4-4.6-11-6.2-14.9-2.1c-2.9,3-2.9,8.1-0.8,11.7c2.1,3.6,5.8,6.1,9.7,7.6
								c15.4,6.2,34.9-0.8,42.7-15.4"/>
							<path class="st11" d="M149.3,221c4-2.3,8.4-4,13-4.2c4.6-0.2,9.4,1.2,12.7,4.5c3.3,3.2,4.9,8.3,3.4,12.6
								c-1.5,4.3-6.4,7.4-10.9,6.4c-3.3-0.8-5.9-3.5-7.1-6.6c-1.2-3.1-1.2-6.7-0.6-10c2.3-13.1,12.8-23.3,23.8-30.7"/>
							<path class="st11" d="M26.9,248.1c-4.9,5.2-5.5,13.9-1.3,19.7s12.7,7.9,19.1,4.9c6.4-3.1,10.1-11.1,8.2-18
								c-0.7-2.5-2.1-4.8-4.3-6c-2.3-1.2-5.4-0.8-6.8,1.3c-1.2,1.8-0.8,4.5,0.5,6.2c1.4,1.8,3.5,2.8,5.6,3.4
								c6.5,1.9,13.8,0.7,19.2-3.3"/>
							<path class="st11" d="M178.4,299.8c4.4,2.8,10.3,2.4,15,0c4.7-2.4,8.2-6.5,11-10.9c2.5-3.9,4.5-8.5,3.7-13
								c-0.9-4.5-5.8-8.4-10.1-6.7c-3.8,1.6-5,7-3.1,10.6c1.9,3.7,6,5.8,10.1,6.6c6.7,1.4,14,0,19.6-3.9"/>
						</g>
						<g>
							<path class="st12" d="M191.6,175.4c-7.3,3.3-10,6-13.3,13.3c-3.3-7.3-6-10-13.3-13.3c7.3-3.3,10-6,13.3-13.3
								C181.6,169.4,184.3,172.1,191.6,175.4z"/>
						</g>
						<g>
							<path class="st12" d="M100.5,240.2c-5,4.9-6.3,7.8-6.8,14.8c-4.9-5-7.8-6.3-14.8-6.8c5-4.9,6.3-7.8,6.8-14.8
								C90.6,238.3,93.6,239.7,100.5,240.2z"/>
						</g>
						<g>
							<path class="st12" d="M139.9,269.3c-3.4,1.1-6.5-0.4-7.4-3.3c-1-3,0.6-6,4-7.1c3.4-1.1,6.4,0.5,7.4,3.4
								C144.9,265.1,143.3,268.2,139.9,269.3z M121.2,229.7l10.4-3.4l7.6,27.3l-8.1,2.6L121.2,229.7z"/>
						</g>
						<g>
							<path class="st12" d="M116.9,184.7c-3.4-1.2-5-4.3-4-7.2c1-3,4.1-4.5,7.6-3.3c3.4,1.2,4.9,4.3,3.9,7.3
								C123.4,184.4,120.3,185.9,116.9,184.7z M125.7,141.4l10.4,3.6l-10.4,26.6l-8.2-2.8L125.7,141.4z"/>
						</g>
						<path class="st12" d="M164.7,286.9c5-7.3,9-12.4,14-19.7c-3.7,0.6-7.4,1.1-11.1,1.7c3.3-5.7,6.6-11.3,9.9-17l-1.4,10.2h13.6
							L164.7,286.9z"/>
						<path class="st12" d="M56.1,201.3c-4.2-6.1-7.5-10.4-11.7-16.4c3.1,0.5,6.2,0.9,9.3,1.4c-2.7-4.7-5.5-9.5-8.2-14.2l1.2,8.6
							H35.2L56.1,201.3z"/>
					</g>
				</g>
			</g>
			<g>
				<defs>
					
						<rect id="SVGID_3_" x="117.7" y="224.6" transform="matrix(-1 -1.224647e-16 1.224647e-16 -1 777.3646 1073.4766)" width="542" height="624.3"/>
				</defs>
				<clipPath id="SVGID_00000031890621679508371060000017999319503406481565_">
					<use xlink:href="#SVGID_3_"  style="overflow:visible;"/>
				</clipPath>
				<g style="clip-path:url(#SVGID_00000031890621679508371060000017999319503406481565_);">
					<g>
						<g>
							<path class="st14" d="M339.2,582.2c2-29.1,5.9-65.5,7.5-94.3l70.5-0.3l1.2,88L339.2,582.2z"/>
							<path class="st15" d="M418,541.5c-26-0.3-52.6-10-73.1-26.8c0.4-5,0.8-9.9,1.1-14.6l71.3-12.4L418,541.5z"/>
						</g>
						<g>
							<g>
								<path class="st14" d="M476.9,440.8c11.2,5.1,23.6-0.3,31.6-9.6c9-10.3,13.9-25.6,11.8-40.8c-2-15.2-11.4-29.7-24-35.1
									c-12.6-5.4-27.6-0.6-34.1,12c-5.9,11.5-7.9,26.3-5,40C460.1,421,465.5,435.6,476.9,440.8z"/>
								<path class="st16" d="M476.9,440.8c11.2,5.1,23.6-0.3,31.6-9.6c9-10.3,13.9-25.6,11.8-40.8c-2-15.2-11.4-29.7-24-35.1
									c-12.6-5.4-27.6-0.6-34.1,12c-5.9,11.5-7.9,26.3-5,40C460.1,421,465.5,435.6,476.9,440.8z"/>
								<g>
									<path class="st17" d="M474.1,394.7c6.1,0.2,11.5,4.7,14.7,10.2c3.1,5.5,4.3,12,5.1,18.3"/>
									<path class="st17" d="M489.2,403.8c6.6-6.1,9.3-16.4,6.5-25.1"/>
								</g>
							</g>
							<path class="st14" d="M476.8,327.3c31.2,145.4-14.2,178.4-66,186.3c-58.7,8.9-106.4-20.5-122.9-80
								c-5.5-19.8-10.4-42.7-13.1-67.1C261.7,248.2,453.2,217.1,476.8,327.3z"/>
							<g>
								<g class="st18">
									<path class="st19" d="M367.2,433.6c1.1,13.4-8.4,25.2-21.2,26.4c-12.8,1.2-24.1-8.8-25.2-22.2
										c-1.1-13.4,8.4-25.2,21.2-26.4C354.8,410.3,366.1,420.2,367.2,433.6z"/>
									<path class="st19" d="M485,411.2c1.1,13.4-8.4,25.2-21.2,26.4c-12.8,1.2-24.1-8.8-25.2-22.2c-1.1-13.4,8.4-25.2,21.2-26.4
										C472.6,387.9,483.9,397.8,485,411.2z"/>
								</g>
								<g>
									<g>
										<path class="st20" d="M338.7,373.4c7.5-5.3,24.8-14.6,33-6.1c1.3,1.3,0.2,3.6-1.6,3.4c-6.9-0.8-17.2,0.2-26.4,9.5
											c-1.5,1.6-4,1.7-5.6,0.2c0,0-0.1-0.1-0.1-0.1C336,378.4,336.4,375,338.7,373.4z"/>
									</g>
								</g>
								<g>
									<g>
										<path class="st20" d="M444,351.1c-8.6-1.9-27.5-3.8-32,7c-0.7,1.7,1.1,3.3,2.6,2.5c6-3.3,15.7-6.3,27.2-1.4
											c1.9,0.8,4.2,0,5.2-1.9c0,0,0-0.1,0.1-0.1C448.2,354.6,446.6,351.7,444,351.1z"/>
									</g>
								</g>
								<path class="st17" d="M383.5,431.9c4.5,9.9,22.3,12,29.8,4.2"/>
								<path class="st17" d="M395.2,371.1c1.4,5.6,2.8,11.2,3.9,15.5c1.1,4.5,4.3,8,8.3,9.8c2.4,1.1,4.5,2.9,4.4,6.1
									c-0.4,11.4-15.3,12.9-18.4,7.4"/>
								<g>
									<path class="st21" d="M357.8,395.9c0.9,2.1,2.4,4.1,4.8,5.3c2.4,1.2,5.6,1.5,8.1,0.3c1.9-0.9,3.2-2.5,3.8-4.2
										c0.6-1.7,0.7-3.5,0.7-5.2c0.1-4.9-2.3-14.3-11.4-11.8C356.6,382.2,355.9,391.4,357.8,395.9z"/>
									<path class="st21" d="M419.2,384.8c0.9,2.1,2.4,4.1,4.8,5.3c2.4,1.2,5.6,1.5,8.1,0.3c1.9-0.9,3.2-2.5,3.8-4.2
										c0.6-1.7,0.7-3.5,0.7-5.2c0.1-4.9-2.3-14.3-11.4-11.8C418,371.1,417.3,380.3,419.2,384.8z"/>
								</g>
							</g>
							<g>
								<path class="st21" d="M254.4,311c3.8-9.4,11.5-17,20.9-20c-2.5,0.4-5.2-1.2-6.3-3.7c-1.3-2.8-0.7-6.3,0.8-9
									c1.5-2.7,3.9-4.7,6.4-6.5c5.5-4,11.7-7.8,18.2-9.8c-1.2-1.9-9.4-5.9-10.9-7.6c-1.5-1.7-2.2-4.4-0.9-6.3
									c1.5-2.3,4.8-2.2,7.1-0.9c2.3,1.2,4.2,3.3,6.5,4.6c0.3-2-0.2-4.1-0.6-6.1c-0.4-2-0.7-4.1-0.1-6.1c0.6-1.9,2.6-3.6,4.5-3.1
									c5.1,1.6,5.8,12,5,16c37-21.9,84.3-23.3,122.6-4.1c7.9-1.6,16.3-0.3,23.4,3.6c3,1.7,6,4.4,6,7.9c0,2.6-1.8,5-4,6.3
									c-1.1,0.6,18.1,16.6,25.8,42.5c13.3,45,6.7,71.4,6.7,71.4s-5.6-16.4-13.4-32.3c-4-1.3-10-4-15.4-7.9
									c-8.7-6.2-19.1-24.6-21.6-31.3c-9.8,13.2-30,32.3-51.1,27.8c-14.5-3.1-20.6-22.9-20.5-28.2c-1.4,3.6-3.8,7.7-6.1,10.9
									c-2.2,3.1-5.4,5.8-9.1,6.5c-3.7,0.7-7.9-0.8-9.7-4.2c-5.5,14.4-19.1,26.4-32.9,32.2c3.2,8.5,1.6,28.2-1.4,40.7
									c-0.5,2.2-1.1,4.5-2.4,6.3c-0.6,0.9-1.3,1.7-2.1,2.3c0,1.4-36.4-1.6-36.4-1.6s-5.2-22.4-7-44.1c-0.9-10.2,0.5-19.9,3.5-29.2
									l-1.2-0.2c-3-0.8-5.1-3.9-5.7-7.1C252.3,317.3,253.2,314,254.4,311z"/>
								<g>
									<path class="st22" d="M438.4,291.2c0.9,6.3-0.5,12.9-3.9,18.1"/>
									<path class="st22" d="M365,294.1c0.3,5.1-0.4,10.2-2,15.1"/>
									<path class="st22" d="M338.8,307.6c0.5,4.7,0.2,9.5-0.6,14.2"/>
									<path class="st22" d="M274.8,291.1c5.5,1.1,9.7,1.3,14.8-0.2"/>
									<path class="st22" d="M259.5,327.9c4.6,0.7,8.1,0.4,12.1-1.4"/>
									<path class="st22" d="M452.7,266.4c-4.2,1.8-8.7,2.6-13.1,2.5"/>
								</g>
							</g>
							<g>
								<path class="st14" d="M305.7,473.1c-10.4,8.5-25.6,7.4-37.5,1.3c-13.2-6.8-23.7-19.8-26.6-34.9c-2.9-15.1,2.3-32,14.1-41.3
									c11.7-9.3,29.6-9.7,40.9,0.2c10.3,9,17.4,22.4,19,36.3C317.1,448.7,316.2,464.4,305.7,473.1z"/>
								<g>
									<path class="st17" d="M295.9,428.3c-5.8,2.2-9.6,8.2-10.9,14.5c-1.3,6.3-0.5,12.8,0.6,19.1"/>
									<path class="st17" d="M284.2,441.9c-8.1-3.6-13.7-12.6-13.7-21.8"/>
								</g>
							</g>
						</g>
					</g>
					<g>
						<path class="st14" d="M250.5,613.9c-67-36-101.9,199.8-131.6,300.3l86.3,3C205.1,917.3,308.4,645.1,250.5,613.9z"/>
						<g>
							<path class="st23" d="M615.7,665.6c0,0-67.1,54.8-108.9,46.7l43.8-39.2L615.7,665.6z"/>
							<path class="st24" d="M624.5,817c-32.3,21.7-109.4-106.6-109.4-106.6s-29.3-117.8-18.8-114.8
								C506.7,598.6,669.7,786.5,624.5,817z"/>
							<path class="st25" d="M260.9,684.7c26.3-33.4,26-86,16.2-136.6l65.3-7c22.5,26.3,64,32.3,75.8,1.6l75.3,4.6
								c-7.5,42.6-9.9,94.9,17.2,134.8c0.9,10,26.2,213.6,26.2,213.6c-92.5,30.9-193.1,34.8-287.5,11
								C249.4,906.7,260.7,686.3,260.9,684.7z"/>
							<path class="st23" d="M342.4,541.1l-16.4,1.8c0,0,14.2,36.8,59.4,37.7c44.9,0.9,46.2-37,46.2-37l-13.4-1
								c0,0-6.3,20.9-32.2,20.7C362.4,563.1,342.4,541.1,342.4,541.1z"/>
							<path class="st25" d="M488.7,547.1c24.9,0.5,48.4,13.4,67,30.8c18.5,17.4,45.9,66.2,60,87.7c-38.1,14-73.1,23.2-108.9,46.7
								C475.9,669.6,466.5,595.5,488.7,547.1z"/>
							<path class="st23" d="M615.7,665.6l-9.9-14.8c0,0-57.8,10.9-92.9,45.5l1.6,16.9c0,0,21.1-12.4,48.6-25.1
								C599.7,671.2,615.7,665.6,615.7,665.6z"/>
							<path class="st25" d="M286.5,547.1c-24.9,0.5-48.4,13.4-67,30.8c-18.5,17.4-45,69.2-59.1,90.7c16,27.2,52.3,50.4,102.6,56.2
								C294,682.2,308.7,595.5,286.5,547.1z"/>
							<path class="st23" d="M260.9,711.9c-38-3.2-71.6-21.9-91.8-57.3l-8.7,14.1c0,0,12.7,31.2,45,46.9
								c27,13.1,54.3,14.8,54.3,14.8L260.9,711.9z"/>
						</g>
						<path class="st26" d="M537.2,888.2l1.3,7.5c-92.5,30.9-193.1,34.8-287.5,11l11.3-218.8c0.5,0,1-0.1,1.5-0.1
							C250.7,838,500.4,893.2,537.2,888.2z"/>
						<g class="st27">
							<path class="st28" d="M537.7,894.8c0,0-24.1-174.4-25.5-213.8"/>
							<path class="st28" d="M263.5,684.5c-4,76.6-12,221.7-12,221.7"/>
						</g>
						<g>
							<path class="st14" d="M631.7,813.4c62.2-44.4-68.6-194.1-151.1-278.8l-22.9,31.9C457.6,566.5,561.8,863.3,631.7,813.4z"/>
							<g>
								<path class="st14" d="M414.5,482.3c0.3-0.4,0.6-0.7,1-1c-1.7-1.7-3-4.5-2.4-7.3c0.6-2.9,2.8-5.1,5.2-6.5
									c2.5-1.4,5.2-2,8-2.6c1.8-0.4,3.7-0.7,5.6-1.1c-0.2-0.1-0.2-0.3,0-0.4c-2.8-2.5-7-6.1-9.1-8.4c-2.2-2.4-3.6-6.1-1.9-8.9
									c1.8-2.9,5.8-2.9,9-2.4c1.1,0.2,2.1,0.4,3.2,0.5c-0.2-0.2-0.3-0.5-0.5-0.7c-1.6-2.8-2.3-6.8-0.1-9.1
									c2.3-2.4,6.2-1.5,9.3-0.3c11.3,4.4,21.9,10.6,31.3,18.4c0,0,6.2,5.4,6.6,10.8l0.2,2.4c0,0,3.6,47.1,0.6,69.2l-22.4,32.5
									c-8-3.9-17.1-9.8-22.4-17.1c-17.4-23.9-7.8-43.9-1-49.8c-1.4-2.2-1.2-4.8-2.5-7c-0.3,0-0.7,0.1-1,0.2l-2.2,0.5
									c-1.1,0.3-2.2,0.8-3.2,1.3c0.6,2.9,1.2,5.8,0.8,8.7c0,0,0,0.1,0,0.1c-0.6,4.1-5.7,5.4-8.3,2.2c-2.2-2.8-4.2-5.8-5.4-9.2
									C411,492.3,411.2,486.2,414.5,482.3z"/>
								<path class="st29" d="M458.2,567.4c-8-3.9-17.1-9.8-22.4-17.1c-17.4-23.9-7.8-43.9-1-49.8"/>
								<path class="st29" d="M439.9,453.9c-2.2-3.1-5.7-7.6-7.3-10.4c-1.6-2.8-2.3-6.8-0.1-9.1c2.3-2.4,6.2-1.5,9.3-0.3
									c11.3,4.4,21.9,10.6,31.3,18.4c0,0,6.2,5.4,6.6,10.8l0.2,2.4c0,0,3.6,47.1,0.6,69.2"/>
								<path class="st30" d="M432,463.5c-2.8-2.5-7.1-6.2-9.3-8.5c-2.2-2.4-3.6-6.1-1.9-8.9c1.8-2.9,5.8-2.9,9-2.4
									c11.9,1.8,23.5,5.5,34.4,10.9c0,0,7.1,3.9,8.7,9"/>
								<path class="st29" d="M415.6,481.3c-1.7-1.6-3.1-4.6-2.5-7.4c0.6-2.9,2.8-5.1,5.2-6.5c2.5-1.4,5.2-2,8-2.6
									c10.5-2.2,21.4-3.7,32-2.5c0,0,11.1,3,12.2,11.9"/>
								<path class="st29" d="M464.1,485.7c0.6-5.7-3.7-10.9-8.8-12.9c-5.5-2.1-11.7-1.3-17.4,0c-5.6,1.2-11,2.8-16.3,4.9
									c-2.6,1.1-5.2,2.4-7,4.6c-3.4,4-3.5,10.1-1.7,15c1.2,3.4,3.2,6.4,5.4,9.2c2.5,3.2,7.7,1.9,8.3-2.2c0,0,0-0.1,0-0.1
									c0.4-3.1-0.2-6.2-0.9-9.2"/>
							</g>
						</g>
					</g>
				</g>
			</g>
		</g>
		<text transform="matrix(1 0 0 1 25.6231 166.4377)" class="st3 st31 st32">ADHD</text>
	</g>
</g>
</svg>
