<?xml version="1.0" encoding="utf-8"?>
<!-- Generator: Adobe Illustrator 27.0.0, SVG Export Plug-In . SVG Version: 6.00 Build 0)  -->
<svg version="1.1" id="Capa_1" xmlns="http://www.w3.org/2000/svg" xmlns:xlink="http://www.w3.org/1999/xlink" x="0px" y="0px"
	 viewBox="0 0 682.6 665.6" style="enable-background:new 0 0 682.6 665.6;" xml:space="preserve">
<style type="text/css">
	.st0{fill:none;stroke:#F3EE96;stroke-width:30;stroke-linecap:round;stroke-linejoin:round;stroke-miterlimit:10;}
	.st1{fill:#F3EE96;}
	.st2{fill:#1E1E1C;}
</style>
<g>
	<path class="st0" d="M221.3,171.9l90.4,111.7L503.5,15.7h-325V257c0,46.2,37.4,83.6,83.6,83.6h241.2c0.1,0,0.2-0.1,0.2-0.2V89.1"/>
	<g>
		<path class="st1" d="M51.8,581.5h48.5c8.2,0,14.9,6.7,14.9,14.9l0,0c0,8.2-6.7,14.9-14.9,14.9H14.9c-8.2,0-14.9-6.7-14.9-14.9
			V445.9c0-8.2,6.7-14.9,14.9-14.9h7c8.2,0,14.9,6.7,14.9,14.9v120.7C36.9,574.8,43.6,581.5,51.8,581.5z"/>
		<path class="st1" d="M133.8,442.6c0-5.4,1.8-9.8,5.3-13.3c3.6-3.5,8.4-5.2,14.6-5.2c6.1,0,10.9,1.7,14.5,5.2
			c3.6,3.5,5.4,7.9,5.4,13.3c0,5.5-1.8,9.9-5.5,13.4c-3.6,3.5-8.5,5.2-14.4,5.2c-6,0-10.8-1.7-14.4-5.2
			C135.6,452.5,133.8,448,133.8,442.6z M153.7,611.4L153.7,611.4c-9.8,0-17.8-8-17.8-17.8v-98.4c0-9.8,8-17.8,17.8-17.8h0
			c9.8,0,17.8,8,17.8,17.8v98.4C171.5,603.4,163.5,611.4,153.7,611.4z"/>
		<path class="st1" d="M272.8,574.3c0-4.4-2.2-7.8-6.5-10.3c-4.3-2.5-11.2-4.8-20.7-6.8c-31.6-6.7-47.5-20.2-47.5-40.7
			c0-11.9,4.9-21.8,14.7-29.8c9.8-8,22.6-12,38.4-12c16.9,0,30.4,4,40.5,12c3.1,2.5,5.7,5.1,7.9,8c7.1,9.6,0.3,23.2-11.7,23.2h-5.7
			c-5.5,0-10.2-3.3-12.6-8.3c-0.8-1.6-1.8-3.1-3.1-4.4c-3.3-3.3-8.4-5-15.4-5c-6,0-10.6,1.4-13.9,4.1c-3.3,2.7-4.9,6.2-4.9,10.4
			c0,4,1.9,7.2,5.6,9.6c3.7,2.4,10,4.5,18.9,6.3c8.9,1.8,16.3,3.8,22.4,6c18.8,6.9,28.2,19,28.2,36.1c0,12.2-5.2,22.1-15.6,29.7
			c-10.4,7.6-23.9,11.3-40.3,11.3c-11.1,0-21-2-29.7-6c-8.6-4-15.4-9.5-20.4-16.5c0-0.1-0.1-0.1-0.1-0.2c-6.6-9.4,0.4-22.4,12-22.4
			h3.7c5.6,0,10.4,3.4,12.8,8.4c1.2,2.4,2.8,4.5,5,6.2c4.3,3.4,10.2,5.1,17.5,5.1c6.8,0,11.9-1.3,15.4-3.9
			C271.1,582,272.8,578.5,272.8,574.3z"/>
		<path class="st1" d="M372.8,454v13.5c0,5.4,4.3,9.7,9.7,9.7h3.3c5.4,0,9.7,4.3,9.7,9.7v6.8c0,5.4-4.3,9.7-9.7,9.7h-3.3
			c-5.4,0-9.7,4.3-9.7,9.7v57.2c0,5,0.9,8.5,2.8,10.7c1.9,2.1,5.5,3.2,10.8,3.2c0.2,0,0.4,0,0.6,0c5.4,0,9.8,4.3,9.8,9.7v9
			c0,4.6-3.2,8.6-7.7,9.5c-4.5,0.9-9.1,1.3-13.8,1.3c-24.9,0-37.6-12.7-38.1-38v-62.5c0-5.4-4.3-9.7-9.7-9.7l0,0
			c-5.4,0-9.7-4.3-9.7-9.7V487c0-5.4,4.3-9.7,9.7-9.7l0,0c5.4,0,9.7-4.3,9.7-9.7V454c0-5.4,4.3-9.7,9.7-9.7h16.1
			C368.5,444.3,372.8,448.7,372.8,454z"/>
		<path class="st2" d="M415.1,442.6c0-5.4,1.8-9.8,5.3-13.3c3.6-3.5,8.4-5.2,14.6-5.2c6.1,0,10.9,1.7,14.5,5.2
			c3.6,3.5,5.4,7.9,5.4,13.3c0,5.5-1.8,9.9-5.5,13.4c-3.6,3.5-8.5,5.2-14.4,5.2c-6,0-10.8-1.7-14.4-5.2
			C416.9,452.5,415.1,448,415.1,442.6z M435,611.4L435,611.4c-9.8,0-17.8-8-17.8-17.8v-98.4c0-9.8,8-17.8,17.8-17.8h0
			c9.8,0,17.8,8,17.8,17.8v98.4C452.9,603.4,444.9,611.4,435,611.4z"/>
		<path class="st2" d="M491.8,601.5v-88c0-5.5-4.4-9.9-9.9-9.9h0c-5.5,0-9.9-4.4-9.9-9.9v-6.5c0-5.5,4.4-9.9,9.9-9.9h0
			c5.5,0,9.9-4.4,9.9-9.9v-1.5c0-15,4.3-26.7,12.8-35c8.6-8.3,20.6-12.5,36-12.5c2.8,0,6,0.3,9.5,0.8c4.9,0.7,8.5,5,8.4,9.9
			l-0.1,8.6c-0.1,5.5-4.6,9.8-10,9.8c-0.3,0-0.6,0-0.9,0c-13.4,0-20,6.3-20,19v0.9c0,5.5,4.4,9.9,9.9,9.9h6.6c5.5,0,9.9,4.4,9.9,9.9
			v6.5c0,5.5-4.4,9.9-9.9,9.9h-6.6c-5.5,0-9.9,4.4-9.9,9.9v88c0,5.5-4.4,9.9-9.9,9.9h-15.9C496.3,611.4,491.8,607,491.8,601.5z"/>
		<path class="st2" d="M627.1,543.5l18.4-62.4c0.7-2.2,2.7-3.8,5.1-3.8h26.7c3.6,0,6.2,3.6,5,7l-51,147.7c0,0.1-0.1,0.2-0.1,0.3
			l-2.9,6.9c-8,17.5-21.1,26.3-39.3,26.3c-3.8,0-7.7-0.4-11.6-1.3c-2.4-0.5-4.1-2.7-4.1-5.2v-17.6c0-3,2.4-5.4,5.4-5.3l0,0
			c6.7,0,11.7-1,15.1-3.1c3.3-2.1,5.9-5.5,7.8-10.3l3.5-9.2c0.4-1.2,0.5-2.4,0.1-3.6l-43.5-125.6c-1.2-3.4,1.4-7,5-7h26.9
			c2.3,0,4.4,1.5,5.1,3.8l18.5,62.5C618.5,548.6,625.6,548.6,627.1,543.5z"/>
	</g>
</g>
</svg>
