<?xml version="1.0" encoding="UTF-8"?>
<svg id="Capa_1" data-name="Capa 1" xmlns="http://www.w3.org/2000/svg" viewBox="0 0 726.01 708.64">
  <defs>
    <style>
      .cls-1 {
        fill: #f6f4ea;
      }

      .cls-2 {
        fill: none;
        stroke: #f6f4ea;
        stroke-linecap: round;
        stroke-linejoin: round;
        stroke-width: 35px;
      }
    </style>
  </defs>
  <path class="cls-2" d="M235.71,183.58l96.1,118.78L535.81,17.5H190.2V274.17c0,49.12,39.82,88.94,88.94,88.94h256.5c.09,0,.17-.07,.17-.17V95.54"/>
  <g>
    <path class="cls-1" d="M55.12,619.28h51.53c8.77,0,15.88,7.11,15.88,15.88h0c0,8.77-7.11,15.88-15.88,15.88H15.88c-8.77,0-15.88-7.11-15.88-15.88v-160.15c0-8.77,7.11-15.88,15.88-15.88h7.47c8.77,0,15.88,7.11,15.88,15.88v128.38c0,8.77,7.11,15.88,15.88,15.88Z"/>
    <path class="cls-1" d="M142.28,471.52c0-5.71,1.9-10.41,5.69-14.1,3.79-3.69,8.96-5.54,15.5-5.54s11.59,1.85,15.43,5.54c3.84,3.69,5.75,8.39,5.75,14.1s-1.94,10.54-5.82,14.24c-3.88,3.69-9,5.53-15.37,5.53s-11.49-1.85-15.37-5.53c-3.88-3.69-5.82-8.44-5.82-14.24Zm21.19,179.52h0c-10.47,0-18.96-8.49-18.96-18.96v-104.7c0-10.47,8.49-18.96,18.96-18.96h0c10.47,0,18.96,8.49,18.96,18.96v104.7c0,10.47-8.49,18.96-18.96,18.96Z"/>
    <path class="cls-1" d="M290.19,611.63c0-4.66-2.29-8.33-6.87-11.01-4.58-2.68-11.92-5.07-22.04-7.18-33.65-7.12-50.48-21.53-50.48-43.23,0-12.65,5.21-23.22,15.63-31.7,10.42-8.48,24.04-12.72,40.87-12.72,17.96,0,32.32,4.26,43.09,12.78,3.3,2.61,6.09,5.46,8.38,8.56,7.55,10.2,.27,24.66-12.42,24.66h-6.08c-5.82,0-10.86-3.55-13.4-8.78-.84-1.73-1.95-3.3-3.35-4.72-3.49-3.56-8.94-5.34-16.35-5.34-6.37,0-11.29,1.45-14.78,4.35-3.49,2.9-5.23,6.59-5.23,11.07,0,4.22,1.98,7.62,5.95,10.21,3.97,2.59,10.66,4.83,20.07,6.72,9.42,1.89,17.35,4.02,23.8,6.39,19.96,7.38,29.95,20.17,29.95,38.36,0,13.01-5.54,23.53-16.61,31.57-11.07,8.04-25.37,12.06-42.89,12.06-11.86,0-22.38-2.13-31.58-6.39-9.2-4.26-16.41-10.1-21.64-17.53-.05-.07-.1-.15-.16-.22-7-10.05,.48-23.83,12.72-23.83h3.88c5.93,0,11.1,3.61,13.66,8.96,1.24,2.59,3.02,4.79,5.33,6.59,4.62,3.61,10.81,5.41,18.57,5.41,7.24,0,12.71-1.39,16.41-4.15,3.7-2.77,5.56-6.39,5.56-10.87Z"/>
    <path class="cls-1" d="M396.5,483.69v14.4c0,5.71,4.63,10.33,10.33,10.33h3.53c5.71,0,10.33,4.63,10.33,10.33v7.28c0,5.71-4.63,10.33-10.33,10.33h-3.53c-5.71,0-10.33,4.63-10.33,10.33v60.85c0,5.27,1,9.05,3.01,11.33,2.01,2.29,5.84,3.43,11.51,3.43,.22,0,.43,0,.64,0,5.77-.04,10.47,4.56,10.47,10.32v9.56c0,4.89-3.42,9.2-8.22,10.12s-9.69,1.38-14.66,1.38c-26.51,0-40.02-13.49-40.54-40.47v-66.51c0-5.71-4.63-10.33-10.33-10.33h0c-5.71,0-10.33-4.63-10.33-10.33v-7.28c0-5.71,4.63-10.33,10.33-10.33h0c5.71,0,10.33-4.63,10.33-10.33v-14.4c0-5.71,4.63-10.33,10.33-10.33h17.13c5.71,0,10.33,4.63,10.33,10.33Z"/>
    <path class="cls-1" d="M441.49,471.52c0-5.71,1.9-10.41,5.69-14.1,3.79-3.69,8.96-5.54,15.5-5.54s11.6,1.85,15.43,5.54c3.84,3.69,5.75,8.39,5.75,14.1s-1.94,10.54-5.82,14.24c-3.88,3.69-9,5.53-15.37,5.53s-11.49-1.85-15.37-5.53c-3.88-3.69-5.82-8.44-5.82-14.24Zm21.18,179.52h0c-10.47,0-18.96-8.49-18.96-18.96v-104.7c0-10.47,8.49-18.96,18.96-18.96h0c10.47,0,18.96,8.49,18.96,18.96v104.7c0,10.47-8.49,18.96-18.96,18.96Z"/>
    <path class="cls-1" d="M523.09,640.52v-93.62c0-5.81-4.71-10.53-10.53-10.53h0c-5.81,0-10.53-4.71-10.53-10.53v-6.89c0-5.81,4.71-10.53,10.53-10.53h0c5.81,0,10.53-4.71,10.53-10.53v-1.6c0-15.99,4.55-28.4,13.67-37.24,9.11-8.83,21.86-13.25,38.25-13.25,2.99,0,6.37,.29,10.14,.86,5.2,.8,9.04,5.3,8.97,10.56l-.12,9.18c-.08,5.82-4.85,10.45-10.67,10.38-.33,0-.66,0-.99,0-14.21,0-21.31,6.72-21.31,20.17v.94c0,5.81,4.71,10.53,10.53,10.53h7.06c5.81,0,10.53,4.71,10.53,10.53v6.89c0,5.81-4.71,10.53-10.53,10.53h-7.06c-5.81,0-10.53,4.71-10.53,10.53v93.62c0,5.81-4.71,10.53-10.53,10.53h-16.87c-5.81,0-10.53-4.71-10.53-10.53Z"/>
    <path class="cls-1" d="M666.96,578.88l19.58-66.41c.71-2.39,2.9-4.04,5.4-4.04h28.44c3.87,0,6.58,3.81,5.32,7.46l-54.25,157.13c-.04,.11-.08,.22-.13,.33l-3.07,7.35c-8.46,18.63-22.41,27.94-41.85,27.94-4.08,0-8.21-.46-12.39-1.38-2.55-.56-4.35-2.87-4.35-5.49v-18.74c0-3.16,2.6-5.7,5.75-5.62h0c7.15,0,12.49-1.1,16.02-3.29,3.53-2.2,6.3-5.85,8.3-10.94l3.72-9.82c.47-1.23,.49-2.59,.05-3.84l-46.31-133.62c-1.27-3.66,1.45-7.47,5.32-7.47h28.56c2.49,0,4.69,1.64,5.39,4.03l19.68,66.43c1.59,5.37,9.21,5.37,10.79,0Z"/>
  </g>
</svg>